<svg
        width="75.75757575757575%"
        height="91.66666666666666%"
        viewBox="0 0 52 46"
        xmlns="http://www.w3.org/2000/svg"
        xmlns:xlink="http://www.w3.org/1999/xlink"
>
    <defs>
        <path
                d="M39.8787 41.587c8.6288-1.1426 9.2154-5.7204 9.6018-7.3204.3284-1.3591 1.9143-16.4272 2.356-19.6471.3995-2.9056 1.215-9.3514-13.5015-10.5507C33.0446 3.6368 29.867 3.0172 26.0306 0c-3.8363 3.0172-7.014 3.6367-12.3044 4.0688C-.9903 5.2681-.2421 11.714.1575 14.6195c.4416 3.2199 2.0553 18.288 2.3837 19.647.3864 1.6 1.0125 6.1779 9.6413 7.3205C23.6431 43.106 25.9428 45.8883 26.0306 46c.0887-.1117 2.3875-2.894 13.848-4.413z"
                id="icon-1-history-237-a"
        ></path>
    </defs>
    <g fill="none" fill-rule="evenodd">
        <g>
            <use
                    fill-opacity=".65"
                    fill="#000000"
                    xlink:href="#icon-1-history-237-a"
            ></use>
            <path
                    stroke="#BBE6E4"
                    stroke-width="2"
                    d="M26.0311 1.2571c-3.7359 2.7482-6.9803 3.3801-12.2235 3.8084-5.4309.4426-8.6696 1.593-10.5496 3.0548-2.7147 2.1109-2.3212 4.826-2.1099 6.363.1745 1.2718.5313 4.3855.9197 7.7768.5904 5.1547 1.2494 10.9602 1.506 12.0325.2183.9554.6017 2.7215 2.5473 4.1571 1.2972.9573 3.2495 1.7562 6.1927 2.146 8.677 1.15 12.3149 3.045 13.7161 4.0728 1.3982-1.0256 5.0341-2.922 13.7174-4.0728 2.9354-.3888 4.8801-1.1843 6.1705-2.1384 1.9451-1.438 2.3149-3.2126 2.5907-4.4256.1949-.8066.8308-6.4942 1.4082-11.6036.3905-3.4562.7518-6.652.9291-7.9445.2114-1.5377.6313-4.256-2.0715-6.3682-1.8682-1.4599-5.0959-2.6078-10.5205-3.0499-5.243-.4282-8.4874-1.0601-12.2227-3.8084z"
                    stroke-linecap="square"
                    fill-opacity=".25"
                    fill="#BBE6E4"
            ></path>
        </g>
        <text
                font-family="Inter"
                font-size="25"
                font-weight="400"
                fill="#BBE6E4"
        >
            <tspan
                    x="50%"
                    y="55%"
                    text-anchor="middle"
                    dominant-baseline="middle"
            >
                1
            </tspan>
        </text>
    </g>
</svg>